<svg version="1.1" id="Layer_1" xmlns="http://www.w3.org/2000/svg" xmlns:xlink="http://www.w3.org/1999/xlink" x="0px" y="0px"
	 width="100%" viewBox="0 0 1494 486" enable-background="new 0 0 1494 486" xml:space="preserve">
<path fill="#FFFFFF" opacity="1.000000" stroke="none" 
	d="
M1033.000000,487.000000 
	C688.710083,487.000000 344.920105,487.000000 1.065079,487.000000 
	C1.065079,325.063843 1.065079,163.127670 1.065079,1.095742 
	C499.000000,1.095742 997.000000,1.095742 1494.970703,1.095742 
	C1494.970703,163.079956 1494.970703,325.039978 1494.970703,487.000000 
	C1341.127563,487.000000 1187.313843,487.000000 1033.000000,487.000000 
M204.030045,173.858170 
	C194.966888,165.060120 185.881989,156.284332 176.846222,147.458237 
	C166.183426,137.042892 154.952744,136.897095 144.411026,147.254028 
	C116.508446,174.667480 88.650742,202.126617 60.790440,229.583054 
	C59.776615,230.582214 58.922958,231.743881 57.973522,232.854523 
	C61.177498,236.026093 64.092232,238.911346 67.974785,242.754639 
	C71.339035,238.840607 74.643707,234.995880 77.948380,231.151169 
	C78.329636,231.377060 78.710884,231.602951 79.092133,231.828842 
	C79.092133,233.418793 79.092125,235.008743 79.092133,236.598694 
	C79.092216,264.075256 79.087151,291.551819 79.094818,319.028381 
	C79.098053,330.623383 84.279686,335.828796 95.824188,335.831238 
	C129.462158,335.838348 163.100159,335.849030 196.738113,335.825623 
	C208.552551,335.817413 220.366928,335.714355 233.104996,335.675293 
	C259.758331,335.682373 286.411682,335.708313 313.065002,335.687531 
	C324.144623,335.678894 329.048676,330.641663 329.051514,319.383148 
	C329.058502,291.730194 329.053864,264.077271 329.053864,236.424316 
	C329.053864,234.753296 329.053864,233.082291 329.053864,231.411270 
	C329.596069,231.167389 330.138275,230.923492 330.680450,230.679611 
	C333.987122,234.641571 337.293762,238.603546 340.286652,242.189575 
	C344.207306,238.695328 347.404602,235.845749 350.711700,232.898300 
	C349.755768,231.798920 349.164886,231.018463 348.474182,230.339584 
	C319.744720,202.101700 291.043732,173.834625 262.245483,145.667023 
	C253.908554,137.512680 242.107178,137.535156 233.531830,145.720917 
	C223.775192,155.034302 214.264862,164.605713 204.030045,173.858170 
M973.933838,328.447083 
	C973.960022,304.452118 973.650818,280.450867 974.099915,256.463837 
	C974.624451,228.450333 993.467224,210.905563 1020.836182,212.175476 
	C1037.168457,212.933289 1048.981934,221.247009 1053.459717,236.081970 
	C1055.162964,241.724991 1055.880615,247.849579 1055.953369,253.768127 
	C1056.232056,276.427063 1056.066040,299.091492 1056.066162,321.753876 
	C1056.066162,326.706573 1056.066162,331.659271 1056.066162,336.714417 
	C1065.227295,336.714417 1073.947998,336.714417 1082.933838,336.714417 
	C1082.933838,334.620789 1082.932373,332.814697 1082.934082,331.008606 
	C1082.958008,306.013855 1082.565186,281.009430 1083.145386,256.027588 
	C1083.572388,237.639191 1090.527954,222.157074 1109.018433,215.441956 
	C1124.744385,209.730835 1140.618408,209.653748 1153.937012,221.972031 
	C1162.881714,230.244781 1164.967163,241.466492 1165.025024,253.054840 
	C1165.155640,279.215912 1165.066162,305.378082 1165.066162,331.539795 
	C1165.066162,333.298462 1165.066162,335.057129 1165.066162,336.610931 
	C1174.433105,336.610931 1183.157715,336.610931 1191.933838,336.610931 
	C1191.933838,313.722351 1192.030884,291.226898 1191.889771,268.732910 
	C1191.826050,258.583191 1191.792480,248.390091 1190.864746,238.297623 
	C1188.651367,214.220932 1173.280640,196.276184 1150.042847,190.436829 
	C1135.874878,186.876572 1121.667480,187.439301 1107.667114,191.747955 
	C1094.235107,195.881622 1083.253052,203.565979 1074.829834,214.996490 
	C1056.600220,181.458771 998.154846,178.870636 972.799072,210.729980 
	C972.799072,203.318054 972.799072,196.650375 972.799072,189.968414 
	C963.915344,189.968414 955.648560,189.968414 947.378784,189.968414 
	C947.378784,239.017288 947.378784,287.785950 947.378784,336.684998 
	C956.307922,336.684998 965.016602,336.684998 973.933777,336.684998 
	C973.933777,334.053864 973.933777,331.740723 973.933838,328.447083 
M396.160126,275.499939 
	C396.160126,295.926270 396.160126,316.352570 396.160126,336.808655 
	C405.730560,336.808655 414.668335,336.808655 424.119019,336.808655 
	C424.119019,317.065948 424.119019,297.513031 424.119019,277.717438 
	C442.622101,277.717438 460.617767,278.000519 478.593414,277.525452 
	C483.297699,277.401154 485.647461,278.781830 488.155029,282.445862 
	C499.992035,299.742126 512.117615,316.841370 524.214844,333.958191 
	C525.083374,335.187042 526.526733,336.833099 527.739502,336.864380 
	C537.103760,337.106262 546.476990,336.997620 556.575134,336.997620 
	C540.910583,314.859711 525.815552,293.526794 511.408264,273.165710 
	C519.645569,267.538147 528.035278,263.162201 534.736755,256.961700 
	C551.593750,241.364960 555.042480,221.022354 552.502319,199.237335 
	C550.805969,184.688614 544.678772,172.165695 533.770691,162.210587 
	C519.996765,149.639984 503.208435,143.791779 485.078125,143.181335 
	C456.117035,142.206238 427.112213,142.526779 398.125702,142.328415 
	C397.519684,142.324265 396.911285,142.670609 396.160126,142.896729 
	C396.160126,186.861282 396.160126,230.680588 396.160126,275.499939 
M697.743469,328.253052 
	C730.835266,309.312561 741.268188,269.684631 729.375000,236.634445 
	C718.748474,207.104065 696.201355,191.893753 665.400085,188.706039 
	C620.490845,184.058319 581.396057,214.708466 580.606079,261.670715 
	C580.043091,295.136475 599.245667,324.346771 630.520569,334.449646 
	C653.328369,341.817352 675.771484,340.230804 697.743469,328.253052 
M801.223694,332.245087 
	C814.508118,338.044922 828.406555,339.657166 842.716675,338.176941 
	C901.139709,332.133667 923.281616,274.309326 903.212708,230.111145 
	C882.577148,184.664902 821.794556,177.053314 786.149963,203.141006 
	C743.826477,234.116898 746.810486,308.200684 801.223694,332.245087 
M1307.573730,328.174835 
	C1327.815918,282.248352 1348.058228,236.321838 1368.611572,189.689560 
	C1360.800293,189.689560 1353.695312,189.842560 1346.602173,189.618958 
	C1343.492432,189.520950 1342.058350,190.493851 1340.789917,193.459457 
	C1325.529419,229.136353 1310.083618,264.733887 1294.666626,300.343781 
	C1293.791626,302.364838 1292.748169,304.313019 1291.549927,306.774048 
	C1290.820557,305.407959 1290.382202,304.706726 1290.055298,303.956970 
	C1274.010498,267.159210 1257.990845,230.350433 1241.880981,193.581146 
	C1241.230469,192.096619 1239.774292,189.909149 1238.626465,189.866882 
	C1230.067505,189.551788 1221.491821,189.695740 1212.558960,189.695740 
	C1213.327515,191.682114 1213.754395,192.939072 1214.289917,194.147903 
	C1234.785645,240.410950 1255.306519,286.662933 1275.735962,332.955139 
	C1276.472168,334.623322 1277.108398,337.035461 1276.451172,338.498932 
	C1273.398193,345.296967 1270.205200,352.078522 1266.429810,358.493622 
	C1261.942627,366.117859 1254.645020,369.506561 1245.950806,369.800049 
	C1235.325195,370.158752 1226.223877,366.310760 1218.218018,359.000336 
	C1214.372925,365.761963 1210.638306,372.329254 1206.909546,378.886353 
	C1207.841553,379.769440 1208.402832,380.384308 1209.045044,380.897980 
	C1236.478271,402.836456 1275.871948,394.189178 1292.047852,362.384583 
	C1297.604370,351.459259 1302.173218,340.031616 1307.573730,328.174835 
z"/>
<path fill="#030303" opacity="1.000000" stroke="none" 
	d="
M973.933838,328.937317 
	C973.933777,331.740723 973.933777,334.053864 973.933777,336.684998 
	C965.016602,336.684998 956.307922,336.684998 947.378784,336.684998 
	C947.378784,287.785950 947.378784,239.017288 947.378784,189.968414 
	C955.648560,189.968414 963.915344,189.968414 972.799072,189.968414 
	C972.799072,196.650375 972.799072,203.318054 972.799072,210.729980 
	C998.154846,178.870636 1056.600220,181.458771 1074.829834,214.996490 
	C1083.253052,203.565979 1094.235107,195.881622 1107.667114,191.747955 
	C1121.667480,187.439301 1135.874878,186.876572 1150.042847,190.436829 
	C1173.280640,196.276184 1188.651367,214.220932 1190.864746,238.297623 
	C1191.792480,248.390091 1191.826050,258.583191 1191.889771,268.732910 
	C1192.030884,291.226898 1191.933838,313.722351 1191.933838,336.610931 
	C1183.157715,336.610931 1174.433105,336.610931 1165.066162,336.610931 
	C1165.066162,335.057129 1165.066162,333.298462 1165.066162,331.539795 
	C1165.066162,305.378082 1165.155640,279.215912 1165.025024,253.054840 
	C1164.967163,241.466492 1162.881714,230.244781 1153.937012,221.972031 
	C1140.618408,209.653748 1124.744385,209.730835 1109.018433,215.441956 
	C1090.527954,222.157074 1083.572388,237.639191 1083.145386,256.027588 
	C1082.565186,281.009430 1082.958008,306.013855 1082.934082,331.008606 
	C1082.932373,332.814697 1082.933838,334.620789 1082.933838,336.714417 
	C1073.947998,336.714417 1065.227295,336.714417 1056.066162,336.714417 
	C1056.066162,331.659271 1056.066162,326.706573 1056.066162,321.753876 
	C1056.066040,299.091492 1056.232056,276.427063 1055.953369,253.768127 
	C1055.880615,247.849579 1055.162964,241.724991 1053.459717,236.081970 
	C1048.981934,221.247009 1037.168457,212.933289 1020.836182,212.175476 
	C993.467224,210.905563 974.624451,228.450333 974.099915,256.463837 
	C973.650818,280.450867 973.960022,304.452118 973.933838,328.937317 
z"/>
<path fill="#030303" opacity="1.000000" stroke="none" 
	d="
M396.160126,274.999908 
	C396.160126,230.680588 396.160126,186.861282 396.160126,142.896729 
	C396.911285,142.670609 397.519684,142.324265 398.125702,142.328415 
	C427.112213,142.526779 456.117035,142.206238 485.078125,143.181335 
	C503.208435,143.791779 519.996765,149.639984 533.770691,162.210587 
	C544.678772,172.165695 550.805969,184.688614 552.502319,199.237335 
	C555.042480,221.022354 551.593750,241.364960 534.736755,256.961700 
	C528.035278,263.162201 519.645569,267.538147 511.408264,273.165710 
	C525.815552,293.526794 540.910583,314.859711 556.575134,336.997620 
	C546.476990,336.997620 537.103760,337.106262 527.739502,336.864380 
	C526.526733,336.833099 525.083374,335.187042 524.214844,333.958191 
	C512.117615,316.841370 499.992035,299.742126 488.155029,282.445862 
	C485.647461,278.781830 483.297699,277.401154 478.593414,277.525452 
	C460.617767,278.000519 442.622101,277.717438 424.119019,277.717438 
	C424.119019,297.513031 424.119019,317.065948 424.119019,336.808655 
	C414.668335,336.808655 405.730560,336.808655 396.160126,336.808655 
	C396.160126,316.352570 396.160126,295.926270 396.160126,274.999908 
M508.060242,175.345947 
	C501.236786,172.864395 494.530121,168.699539 487.567993,168.216492 
	C466.565735,166.759369 445.464142,166.733414 424.270447,166.145844 
	C424.270447,196.031952 424.270447,224.919052 424.270447,254.066452 
	C435.834076,254.066452 447.135834,254.211899 458.432007,254.022034 
	C468.072083,253.860016 477.783661,253.956070 487.325653,252.799622 
	C506.213562,250.510513 519.861450,239.134659 523.870361,223.443741 
	C528.859863,203.914642 523.401733,186.841034 508.060242,175.345947 
z"/>
<path fill="#79B2E7" opacity="1.000000" stroke="none" 
	d="
M232.181335,335.654602 
	C220.366928,335.714355 208.552551,335.817413 196.738113,335.825623 
	C163.100159,335.849030 129.462158,335.838348 95.824188,335.831238 
	C84.279686,335.828796 79.098053,330.623383 79.094818,319.028381 
	C79.087151,291.551819 79.092216,264.075256 79.092133,236.598694 
	C79.092125,235.008743 79.092133,233.418793 79.092133,231.828842 
	C78.710884,231.602951 78.329636,231.377060 77.948380,231.151169 
	C74.643707,234.995880 71.339035,238.840607 67.974785,242.754639 
	C64.092232,238.911346 61.177498,236.026093 57.973522,232.854523 
	C58.922958,231.743881 59.776615,230.582214 60.790440,229.583054 
	C88.650742,202.126617 116.508446,174.667480 144.411026,147.254028 
	C154.952744,136.897095 166.183426,137.042892 176.846222,147.458237 
	C185.881989,156.284332 194.966888,165.060120 204.433716,174.294739 
	C207.902390,177.793106 210.967377,180.854874 214.186737,184.214264 
	C230.113495,200.986420 245.885880,217.460938 261.871613,234.158325 
	C260.616241,235.572433 258.328491,238.149429 255.737701,240.868973 
	C254.247604,240.911530 253.060532,240.811523 251.676910,240.467850 
	C248.562378,237.282806 245.644409,234.341446 242.012329,230.680252 
	C242.012329,234.841812 242.012329,237.877441 241.936707,241.380463 
	C241.912506,246.010712 241.963943,250.173584 242.008636,254.782913 
	C242.008957,277.487122 242.015991,299.744904 241.954391,322.371155 
	C241.168076,328.936005 237.255127,332.731445 232.181335,335.654602 
M194.171814,263.508972 
	C194.171814,282.793732 194.171814,302.078461 194.171814,321.545288 
	C205.759277,321.545288 216.770813,321.545288 228.069107,321.545288 
	C228.069107,319.276489 228.069122,317.452759 228.069122,315.629028 
	C228.069138,287.799500 227.584991,259.957245 228.315765,232.146912 
	C228.594330,221.545929 226.040817,214.016174 217.903946,206.712204 
	C201.060059,191.592407 185.047806,175.499146 169.318726,159.202805 
	C160.504395,150.070602 157.980713,152.923813 150.764633,159.986526 
	C132.428619,177.932846 114.078003,195.865585 95.933876,214.004456 
	C94.203011,215.734848 93.047577,218.870071 93.032448,221.361649 
	C92.840233,253.022842 92.901611,284.685577 92.916939,316.347931 
	C92.917786,318.107391 93.080727,319.866791 93.186455,321.992767 
	C102.855972,321.992767 112.007973,321.716187 121.131615,322.105103 
	C125.965942,322.311157 126.952728,320.505219 126.910866,316.092468 
	C126.716415,295.597137 126.783905,275.098755 126.850609,254.601776 
	C126.875435,246.972702 131.991272,241.129562 139.207291,241.011810 
	C153.367981,240.780746 167.537689,240.784760 181.698547,241.011536 
	C188.813583,241.125504 193.967209,246.827103 194.153336,254.015732 
	C194.226639,256.846832 194.169739,259.681305 194.171814,263.508972 
M157.501343,321.997070 
	C165.111618,321.997070 172.721909,321.997070 180.408066,321.997070 
	C180.636002,320.777496 180.855743,320.148132 180.856506,319.518524 
	C180.881317,299.028320 180.837555,278.537872 180.941299,258.048126 
	C180.957535,254.839844 179.529999,254.111786 176.694565,254.136017 
	C166.200272,254.225693 155.699677,254.360367 145.212143,254.079102 
	C140.874374,253.962769 139.938431,255.612259 139.976562,259.597351 
	C140.151886,277.920380 140.053711,296.246002 140.053665,314.570709 
	C140.053665,316.851135 140.053680,319.131561 140.053680,321.997070 
	C145.938416,321.997070 151.220245,321.997070 157.501343,321.997070 
z"/>
<path fill="#020202" opacity="1.000000" stroke="none" 
	d="
M697.445190,328.468353 
	C675.771484,340.230804 653.328369,341.817352 630.520569,334.449646 
	C599.245667,324.346771 580.043091,295.136475 580.606079,261.670715 
	C581.396057,214.708466 620.490845,184.058319 665.400085,188.706039 
	C696.201355,191.893753 718.748474,207.104065 729.375000,236.634445 
	C741.268188,269.684631 730.835266,309.312561 697.445190,328.468353 
M609.246704,278.013062 
	C618.940063,315.195923 658.022400,322.946289 682.627808,308.871887 
	C701.584839,298.028412 707.599243,280.323730 706.794739,259.710297 
	C705.947571,238.005005 693.855774,221.150330 674.983154,214.446152 
	C655.392944,207.487045 633.274658,212.826691 620.126709,227.921280 
	C607.598877,242.303955 605.833862,259.211823 609.246704,278.013062 
z"/>
<path fill="#030303" opacity="1.000000" stroke="none" 
	d="
M800.855896,332.141296 
	C746.810486,308.200684 743.826477,234.116898 786.149963,203.141006 
	C821.794556,177.053314 882.577148,184.664902 903.212708,230.111145 
	C923.281616,274.309326 901.139709,332.133667 842.716675,338.176941 
	C828.406555,339.657166 814.508118,338.044922 800.855896,332.141296 
M877.820007,289.192627 
	C882.525635,279.330444 883.860779,268.892822 883.069702,258.108307 
	C881.655518,238.830063 873.064026,223.874100 855.060425,216.115479 
	C836.868225,208.275543 818.702820,209.523346 802.826599,222.087601 
	C786.033936,235.377136 781.921692,253.679367 784.997803,274.111053 
	C788.164551,295.144409 804.181580,311.294800 825.281494,314.765808 
	C846.978760,318.335052 867.496277,308.523651 877.820007,289.192627 
z"/>
<path fill="#020202" opacity="1.000000" stroke="none" 
	d="
M1307.383545,328.504150 
	C1302.173218,340.031616 1297.604370,351.459259 1292.047852,362.384583 
	C1275.871948,394.189178 1236.478271,402.836456 1209.045044,380.897980 
	C1208.402832,380.384308 1207.841553,379.769440 1206.909546,378.886353 
	C1210.638306,372.329254 1214.372925,365.761963 1218.218018,359.000336 
	C1226.223877,366.310760 1235.325195,370.158752 1245.950806,369.800049 
	C1254.645020,369.506561 1261.942627,366.117859 1266.429810,358.493622 
	C1270.205200,352.078522 1273.398193,345.296967 1276.451172,338.498932 
	C1277.108398,337.035461 1276.472168,334.623322 1275.735962,332.955139 
	C1255.306519,286.662933 1234.785645,240.410950 1214.289917,194.147903 
	C1213.754395,192.939072 1213.327515,191.682114 1212.558960,189.695740 
	C1221.491821,189.695740 1230.067505,189.551788 1238.626465,189.866882 
	C1239.774292,189.909149 1241.230469,192.096619 1241.880981,193.581146 
	C1257.990845,230.350433 1274.010498,267.159210 1290.055298,303.956970 
	C1290.382202,304.706726 1290.820557,305.407959 1291.549927,306.774048 
	C1292.748169,304.313019 1293.791626,302.364838 1294.666626,300.343781 
	C1310.083618,264.733887 1325.529419,229.136353 1340.789917,193.459457 
	C1342.058350,190.493851 1343.492432,189.520950 1346.602173,189.618958 
	C1353.695312,189.842560 1360.800293,189.689560 1368.611572,189.689560 
	C1348.058228,236.321838 1327.815918,282.248352 1307.383545,328.504150 
z"/>
<path fill="#262626" opacity="1.000000" stroke="none" 
	d="
M251.873459,240.711517 
	C253.060532,240.811523 254.247604,240.911530 256.202606,240.932190 
	C259.636963,240.859344 262.303375,240.867203 264.969818,240.872162 
	C277.017700,240.894562 281.812805,245.727432 281.820221,257.908264 
	C281.832062,277.406708 281.823669,296.905121 281.823822,316.403564 
	C281.823822,318.164642 281.823822,319.925720 281.823822,321.679871 
	C293.375671,321.679871 304.273468,321.679871 315.303192,321.679871 
	C315.427155,320.745361 315.586548,320.103271 315.586853,319.461121 
	C315.602142,286.297150 315.638672,253.133041 315.508545,219.969589 
	C315.501740,218.240952 314.481476,216.096329 313.229370,214.855316 
	C293.352722,195.154907 273.378845,175.552368 253.379669,155.975983 
	C249.635132,152.310608 246.242020,152.290558 242.523270,155.908066 
	C232.977432,165.194016 223.523224,174.574158 214.032379,183.916641 
	C210.967377,180.854874 207.902390,177.793106 204.742432,174.398132 
	C214.264862,164.605713 223.775192,155.034302 233.531830,145.720917 
	C242.107178,137.535156 253.908554,137.512680 262.245483,145.667023 
	C291.043732,173.834625 319.744720,202.101700 348.474182,230.339584 
	C349.164886,231.018463 349.755768,231.798920 350.711700,232.898300 
	C347.404602,235.845749 344.207306,238.695328 340.286652,242.189575 
	C337.293762,238.603546 333.987122,234.641571 330.680450,230.679611 
	C330.138275,230.923492 329.596069,231.167389 329.053864,231.411270 
	C329.053864,233.082291 329.053864,234.753296 329.053864,236.424316 
	C329.053864,264.077271 329.058502,291.730194 329.051514,319.383148 
	C329.048676,330.641663 324.144623,335.678894 313.065002,335.687531 
	C286.411682,335.708313 259.758331,335.682373 232.643158,335.664948 
	C237.255127,332.731445 241.168076,328.936005 242.420593,322.366760 
	C251.206512,321.993927 259.457611,321.993927 267.735413,321.993927 
	C267.735413,299.175201 267.735413,276.882599 267.735413,254.336456 
	C258.915100,254.336456 250.465240,254.336456 242.015381,254.336456 
	C241.963943,250.173584 241.912506,246.010712 242.385834,241.375183 
	C245.898209,240.838852 248.885834,240.775192 251.873459,240.711517 
z"/>
<path fill="#FEFEFE" opacity="1.000000" stroke="none" 
	d="
M508.347778,175.566345 
	C523.401733,186.841034 528.859863,203.914642 523.870361,223.443741 
	C519.861450,239.134659 506.213562,250.510513 487.325653,252.799622 
	C477.783661,253.956070 468.072083,253.860016 458.432007,254.022034 
	C447.135834,254.211899 435.834076,254.066452 424.270447,254.066452 
	C424.270447,224.919052 424.270447,196.031952 424.270447,166.145844 
	C445.464142,166.733414 466.565735,166.759369 487.567993,168.216492 
	C494.530121,168.699539 501.236786,172.864395 508.347778,175.566345 
z"/>
<path fill="#FEFEFF" opacity="1.000000" stroke="none" 
	d="
M194.171967,263.011597 
	C194.169739,259.681305 194.226639,256.846832 194.153336,254.015732 
	C193.967209,246.827103 188.813583,241.125504 181.698547,241.011536 
	C167.537689,240.784760 153.367981,240.780746 139.207291,241.011810 
	C131.991272,241.129562 126.875435,246.972702 126.850609,254.601776 
	C126.783905,275.098755 126.716415,295.597137 126.910866,316.092468 
	C126.952728,320.505219 125.965942,322.311157 121.131615,322.105103 
	C112.007973,321.716187 102.855972,321.992767 93.186455,321.992767 
	C93.080727,319.866791 92.917786,318.107391 92.916939,316.347931 
	C92.901611,284.685577 92.840233,253.022842 93.032448,221.361649 
	C93.047577,218.870071 94.203011,215.734848 95.933876,214.004456 
	C114.078003,195.865585 132.428619,177.932846 150.764633,159.986526 
	C157.980713,152.923813 160.504395,150.070602 169.318726,159.202805 
	C185.047806,175.499146 201.060059,191.592407 217.903946,206.712204 
	C226.040817,214.016174 228.594330,221.545929 228.315765,232.146912 
	C227.584991,259.957245 228.069138,287.799500 228.069122,315.629028 
	C228.069122,317.452759 228.069107,319.276489 228.069107,321.545288 
	C216.770813,321.545288 205.759277,321.545288 194.171814,321.545288 
	C194.171814,302.078461 194.171814,282.793732 194.171967,263.011597 
z"/>
<path fill="#FDFDFD" opacity="1.000000" stroke="none" 
	d="
M214.186737,184.214264 
	C223.523224,174.574158 232.977432,165.194016 242.523270,155.908066 
	C246.242020,152.290558 249.635132,152.310608 253.379669,155.975983 
	C273.378845,175.552368 293.352722,195.154907 313.229370,214.855316 
	C314.481476,216.096329 315.501740,218.240952 315.508545,219.969589 
	C315.638672,253.133041 315.602142,286.297150 315.586853,319.461121 
	C315.586548,320.103271 315.427155,320.745361 315.303192,321.679871 
	C304.273468,321.679871 293.375671,321.679871 281.823822,321.679871 
	C281.823822,319.925720 281.823822,318.164642 281.823822,316.403564 
	C281.823669,296.905121 281.832062,277.406708 281.820221,257.908264 
	C281.812805,245.727432 277.017700,240.894562 264.969818,240.872162 
	C262.303375,240.867203 259.636963,240.859344 256.505615,240.789627 
	C258.328491,238.149429 260.616241,235.572433 261.871613,234.158325 
	C245.885880,217.460938 230.113495,200.986420 214.186737,184.214264 
z"/>
<path fill="#FDFEFF" opacity="1.000000" stroke="none" 
	d="
M157.001709,321.997070 
	C151.220245,321.997070 145.938416,321.997070 140.053680,321.997070 
	C140.053680,319.131561 140.053665,316.851135 140.053665,314.570709 
	C140.053711,296.246002 140.151886,277.920380 139.976562,259.597351 
	C139.938431,255.612259 140.874374,253.962769 145.212143,254.079102 
	C155.699677,254.360367 166.200272,254.225693 176.694565,254.136017 
	C179.529999,254.111786 180.957535,254.839844 180.941299,258.048126 
	C180.837555,278.537872 180.881317,299.028320 180.856506,319.518524 
	C180.855743,320.148132 180.636002,320.777496 180.408066,321.997070 
	C172.721909,321.997070 165.111618,321.997070 157.001709,321.997070 
z"/>
<path fill="#FEFFFF" opacity="1.000000" stroke="none" 
	d="
M242.008636,254.782913 
	C250.465240,254.336456 258.915100,254.336456 267.735413,254.336456 
	C267.735413,276.882599 267.735413,299.175201 267.735413,321.993927 
	C259.457611,321.993927 251.206512,321.993927 242.489227,321.998291 
	C242.015991,299.744904 242.008957,277.487122 242.008636,254.782913 
z"/>
<path fill="#F2F4F6" opacity="1.000000" stroke="none" 
	d="
M251.676910,240.467834 
	C248.885834,240.775192 245.898209,240.838852 242.461456,240.907791 
	C242.012329,237.877441 242.012329,234.841812 242.012329,230.680252 
	C245.644409,234.341446 248.562378,237.282806 251.676910,240.467834 
z"/>
<path fill="#FEFEFE" opacity="1.000000" stroke="none" 
	d="
M609.159668,277.600891 
	C605.833862,259.211823 607.598877,242.303955 620.126709,227.921280 
	C633.274658,212.826691 655.392944,207.487045 674.983154,214.446152 
	C693.855774,221.150330 705.947571,238.005005 706.794739,259.710297 
	C707.599243,280.323730 701.584839,298.028412 682.627808,308.871887 
	C658.022400,322.946289 618.940063,315.195923 609.159668,277.600891 
z"/>
<path fill="#FEFEFE" opacity="1.000000" stroke="none" 
	d="
M877.622437,289.511871 
	C867.496277,308.523651 846.978760,318.335052 825.281494,314.765808 
	C804.181580,311.294800 788.164551,295.144409 784.997803,274.111053 
	C781.921692,253.679367 786.033936,235.377136 802.826599,222.087601 
	C818.702820,209.523346 836.868225,208.275543 855.060425,216.115479 
	C873.064026,223.874100 881.655518,238.830063 883.069702,258.108307 
	C883.860779,268.892822 882.525635,279.330444 877.622437,289.511871 
z"/>
</svg>